<svg width="430" height="75" viewBox="0 0 430 75" fill="none" xmlns="http://www.w3.org/2000/svg">
<rect width="430" height="75" fill="#FF9EA0"/>
<path d="M38.657 48H33.7138L41.2457 26.1818H47.1903L54.7116 48H49.7685L44.3033 31.1676H44.1328L38.657 48ZM38.348 39.424H50.0241V43.0249H38.348V39.424ZM57.3377 48V26.1818H66.0735C67.6786 26.1818 69.0174 26.4197 70.0898 26.8956C71.1623 27.3714 71.9684 28.032 72.5082 28.8771C73.0479 29.7152 73.3178 30.6811 73.3178 31.7749C73.3178 32.6271 73.1474 33.3764 72.8065 34.0227C72.4656 34.6619 71.9968 35.1875 71.4002 35.5994C70.8107 36.0043 70.136 36.2919 69.3761 36.4624V36.6754C70.207 36.7109 70.9847 36.9453 71.7092 37.3786C72.4407 37.8118 73.0337 38.419 73.4883 39.2003C73.9428 39.9744 74.1701 40.8977 74.1701 41.9702C74.1701 43.1278 73.8825 44.1612 73.3072 45.0703C72.739 45.9723 71.8974 46.6861 70.7823 47.2116C69.6673 47.7372 68.293 48 66.6594 48H57.3377ZM61.9506 44.2287H65.7113C66.9968 44.2287 67.9343 43.9837 68.5238 43.4936C69.1133 42.9964 69.408 42.3359 69.408 41.5121C69.408 40.9084 69.2624 40.3757 68.9712 39.9141C68.68 39.4524 68.2646 39.0902 67.7248 38.8274C67.1921 38.5646 66.5565 38.4332 65.8178 38.4332H61.9506V44.2287ZM61.9506 35.3118H65.3704C66.0025 35.3118 66.5636 35.2017 67.0536 34.9815C67.5508 34.7543 67.9414 34.4347 68.2255 34.0227C68.5167 33.6108 68.6623 33.1172 68.6623 32.5419C68.6623 31.7536 68.3817 31.1179 67.8207 30.6349C67.2667 30.152 66.4783 29.9105 65.4556 29.9105H61.9506V35.3118ZM96.4224 33.8203H91.7562C91.671 33.2166 91.497 32.6804 91.2342 32.2116C90.9714 31.7358 90.6341 31.331 90.2221 30.9972C89.8102 30.6634 89.3343 30.4077 88.7946 30.2301C88.2619 30.0526 87.6831 29.9638 87.0581 29.9638C85.9288 29.9638 84.9451 30.2443 84.1071 30.8054C83.269 31.3594 82.6191 32.169 82.1575 33.2344C81.6958 34.2926 81.465 35.5781 81.465 37.0909C81.465 38.6463 81.6958 39.9531 82.1575 41.0114C82.6262 42.0696 83.2797 42.8686 84.1177 43.4084C84.9558 43.9482 85.9252 44.218 87.0261 44.218C87.644 44.218 88.2157 44.1364 88.7413 43.973C89.274 43.8097 89.7463 43.5717 90.1582 43.2592C90.5701 42.9396 90.911 42.5526 91.1809 42.098C91.4579 41.6435 91.6497 41.125 91.7562 40.5426L96.4224 40.5639C96.3017 41.5653 95.9998 42.5312 95.5169 43.4616C95.041 44.3849 94.3983 45.2124 93.5886 45.9439C92.786 46.6683 91.8272 47.2436 90.7122 47.6697C89.6042 48.0888 88.3507 48.2983 86.9515 48.2983C85.0055 48.2983 83.2654 47.858 81.7314 46.9773C80.2044 46.0966 78.997 44.8217 78.1092 43.1527C77.2285 41.4837 76.7882 39.4631 76.7882 37.0909C76.7882 34.7116 77.2356 32.6875 78.1305 31.0185C79.0254 29.3494 80.2399 28.0781 81.774 27.2045C83.3081 26.3239 85.0339 25.8835 86.9515 25.8835C88.2157 25.8835 89.3876 26.0611 90.4672 26.4162C91.5538 26.7713 92.5162 27.2898 93.3542 27.9716C94.1923 28.6463 94.8741 29.4737 95.3997 30.4538C95.9324 31.4339 96.2733 32.5561 96.4224 33.8203Z" fill="black"/>
<path d="M101.632 35V27.7273H106.447V28.995H103.17V30.728H106.128V31.9957H103.17V35H101.632ZM114.165 31.3636C114.165 32.1567 114.015 32.8314 113.714 33.3878C113.416 33.9441 113.008 34.3691 112.492 34.6626C111.979 34.9538 111.401 35.0994 110.759 35.0994C110.113 35.0994 109.533 34.9527 109.019 34.6591C108.506 34.3655 108.1 33.9406 107.801 33.3842C107.503 32.8279 107.354 32.1544 107.354 31.3636C107.354 30.5705 107.503 29.8958 107.801 29.3395C108.1 28.7831 108.506 28.3594 109.019 28.0682C109.533 27.7746 110.113 27.6278 110.759 27.6278C111.401 27.6278 111.979 27.7746 112.492 28.0682C113.008 28.3594 113.416 28.7831 113.714 29.3395C114.015 29.8958 114.165 30.5705 114.165 31.3636ZM112.606 31.3636C112.606 30.8499 112.529 30.4167 112.375 30.0639C112.224 29.7112 112.009 29.4437 111.732 29.2614C111.455 29.0791 111.131 28.9879 110.759 28.9879C110.388 28.9879 110.063 29.0791 109.786 29.2614C109.509 29.4437 109.294 29.7112 109.14 30.0639C108.989 30.4167 108.913 30.8499 108.913 31.3636C108.913 31.8774 108.989 32.3106 109.14 32.6634C109.294 33.0161 109.509 33.2836 109.786 33.4659C110.063 33.6482 110.388 33.7393 110.759 33.7393C111.131 33.7393 111.455 33.6482 111.732 33.4659C112.009 33.2836 112.224 33.0161 112.375 32.6634C112.529 32.3106 112.606 31.8774 112.606 31.3636ZM121.987 31.3636C121.987 32.1567 121.837 32.8314 121.536 33.3878C121.238 33.9441 120.831 34.3691 120.315 34.6626C119.801 34.9538 119.223 35.0994 118.582 35.0994C117.935 35.0994 117.355 34.9527 116.842 34.6591C116.328 34.3655 115.922 33.9406 115.624 33.3842C115.325 32.8279 115.176 32.1544 115.176 31.3636C115.176 30.5705 115.325 29.8958 115.624 29.3395C115.922 28.7831 116.328 28.3594 116.842 28.0682C117.355 27.7746 117.935 27.6278 118.582 27.6278C119.223 27.6278 119.801 27.7746 120.315 28.0682C120.831 28.3594 121.238 28.7831 121.536 29.3395C121.837 29.8958 121.987 30.5705 121.987 31.3636ZM120.428 31.3636C120.428 30.8499 120.351 30.4167 120.197 30.0639C120.046 29.7112 119.832 29.4437 119.555 29.2614C119.278 29.0791 118.953 28.9879 118.582 28.9879C118.21 28.9879 117.886 29.0791 117.609 29.2614C117.332 29.4437 117.116 29.7112 116.962 30.0639C116.811 30.4167 116.735 30.8499 116.735 31.3636C116.735 31.8774 116.811 32.3106 116.962 32.6634C117.116 33.0161 117.332 33.2836 117.609 33.4659C117.886 33.6482 118.21 33.7393 118.582 33.7393C118.953 33.7393 119.278 33.6482 119.555 33.4659C119.832 33.2836 120.046 33.0161 120.197 32.6634C120.351 32.3106 120.428 31.8774 120.428 31.3636ZM125.704 35H123.126V27.7273H125.726C126.457 27.7273 127.087 27.8729 127.615 28.1641C128.143 28.4529 128.549 28.8684 128.833 29.4105C129.119 29.9527 129.263 30.6013 129.263 31.3565C129.263 32.1141 129.119 32.7652 128.833 33.3097C128.549 33.8542 128.14 34.272 127.608 34.5632C127.077 34.8544 126.443 35 125.704 35ZM124.664 33.6825H125.64C126.095 33.6825 126.477 33.602 126.787 33.4411C127.1 33.2777 127.334 33.0256 127.491 32.6847C127.649 32.3414 127.729 31.8987 127.729 31.3565C127.729 30.8191 127.649 30.38 127.491 30.0391C127.334 29.6982 127.101 29.4472 126.791 29.2862C126.481 29.1252 126.099 29.0447 125.644 29.0447H124.664V33.6825Z" fill="black"/>
<path d="M108.049 42.2734H106.494C106.465 42.0722 106.407 41.8935 106.32 41.7372C106.232 41.5786 106.12 41.4437 105.982 41.3324C105.845 41.2211 105.686 41.1359 105.506 41.0767C105.329 41.0175 105.136 40.9879 104.928 40.9879C104.551 40.9879 104.223 41.0814 103.944 41.2685C103.665 41.4531 103.448 41.723 103.294 42.0781C103.14 42.4309 103.063 42.8594 103.063 43.3636C103.063 43.8821 103.14 44.3177 103.294 44.6705C103.45 45.0232 103.668 45.2895 103.947 45.4695C104.227 45.6494 104.55 45.7393 104.917 45.7393C105.123 45.7393 105.313 45.7121 105.489 45.6577C105.666 45.6032 105.824 45.5239 105.961 45.4197C106.098 45.3132 106.212 45.1842 106.302 45.0327C106.394 44.8812 106.458 44.7083 106.494 44.5142L108.049 44.5213C108.009 44.8551 107.908 45.1771 107.747 45.4872C107.589 45.795 107.374 46.0708 107.104 46.3146C106.837 46.5561 106.517 46.7479 106.146 46.8899C105.776 47.0296 105.358 47.0994 104.892 47.0994C104.243 47.0994 103.663 46.9527 103.152 46.6591C102.643 46.3655 102.241 45.9406 101.945 45.3842C101.651 44.8279 101.504 44.1544 101.504 43.3636C101.504 42.5705 101.653 41.8958 101.952 41.3395C102.25 40.7831 102.655 40.3594 103.166 40.0682C103.678 39.7746 104.253 39.6278 104.892 39.6278C105.313 39.6278 105.704 39.687 106.064 39.8054C106.426 39.9238 106.747 40.0966 107.026 40.3239C107.306 40.5488 107.533 40.8246 107.708 41.1513C107.886 41.478 107.999 41.852 108.049 42.2734ZM115.835 43.3636C115.835 44.1567 115.685 44.8314 115.384 45.3878C115.086 45.9441 114.678 46.3691 114.162 46.6626C113.649 46.9538 113.071 47.0994 112.429 47.0994C111.783 47.0994 111.203 46.9527 110.689 46.6591C110.176 46.3655 109.77 45.9406 109.471 45.3842C109.173 44.8279 109.024 44.1544 109.024 43.3636C109.024 42.5705 109.173 41.8958 109.471 41.3395C109.77 40.7831 110.176 40.3594 110.689 40.0682C111.203 39.7746 111.783 39.6278 112.429 39.6278C113.071 39.6278 113.649 39.7746 114.162 40.0682C114.678 40.3594 115.086 40.7831 115.384 41.3395C115.685 41.8958 115.835 42.5705 115.835 43.3636ZM114.276 43.3636C114.276 42.8499 114.199 42.4167 114.045 42.0639C113.894 41.7112 113.679 41.4437 113.402 41.2614C113.125 41.0791 112.801 40.9879 112.429 40.9879C112.058 40.9879 111.733 41.0791 111.456 41.2614C111.179 41.4437 110.964 41.7112 110.81 42.0639C110.658 42.4167 110.583 42.8499 110.583 43.3636C110.583 43.8774 110.658 44.3106 110.81 44.6634C110.964 45.0161 111.179 45.2836 111.456 45.4659C111.733 45.6482 112.058 45.7393 112.429 45.7393C112.801 45.7393 113.125 45.6482 113.402 45.4659C113.679 45.2836 113.894 45.0161 114.045 44.6634C114.199 44.3106 114.276 43.8774 114.276 43.3636ZM116.974 39.7273H118.87L120.873 44.6136H120.958L122.961 39.7273H124.857V47H123.366V42.2663H123.306L121.423 46.9645H120.408L118.526 42.2486H118.465V47H116.974V39.7273ZM126.124 47V39.7273H128.994C129.545 39.7273 130.015 39.8326 130.403 40.0433C130.792 40.2517 131.088 40.5417 131.291 40.9134C131.497 41.2827 131.6 41.7088 131.6 42.1918C131.6 42.6747 131.496 43.1009 131.288 43.4702C131.079 43.8395 130.777 44.1271 130.382 44.3331C129.989 44.5391 129.513 44.642 128.955 44.642H127.126V43.4098H128.706C129.002 43.4098 129.246 43.3589 129.438 43.2571C129.632 43.1529 129.776 43.0097 129.871 42.8274C129.968 42.6428 130.016 42.4309 130.016 42.1918C130.016 41.9503 129.968 41.7396 129.871 41.5597C129.776 41.3774 129.632 41.2365 129.438 41.1371C129.243 41.0353 128.997 40.9844 128.699 40.9844H127.662V47H126.124ZM133.013 47H131.365L133.876 39.7273H135.857L138.364 47H136.716L134.895 41.3892H134.838L133.013 47ZM132.91 44.1413H136.802V45.3416H132.91V44.1413ZM145.323 39.7273V47H143.994L140.83 42.4226H140.777V47H139.24V39.7273H140.589L143.728 44.3011H143.792V39.7273H145.323ZM146.167 39.7273H147.889L149.548 42.8594H149.619L151.277 39.7273H152.999L150.347 44.429V47H148.82V44.429L146.167 39.7273Z" fill="black"/>
</svg>
